<svg width="1451" height="1451" viewBox="0 0 1451 1451" fill="none" xmlns="http://www.w3.org/2000/svg">
<g clip-path="url(#clip0_114_62)">
<path d="M210.46 1069C211.643 1063.21 214.935 1058.06 219.698 1054.56C224.46 1051.05 230.355 1049.44 236.238 1050.04C242.121 1050.63 247.575 1053.39 251.54 1057.77C255.506 1062.16 257.701 1067.86 257.701 1073.78C257.701 1079.69 255.506 1085.39 251.54 1089.78C247.575 1094.17 242.121 1096.92 236.238 1097.52C230.355 1098.11 224.46 1096.5 219.698 1093C214.935 1089.49 211.643 1084.34 210.46 1078.55H0V1069H210.46ZM974.035 1298.08C975.217 1292.28 978.509 1287.13 983.272 1283.63C988.035 1280.13 993.929 1278.51 999.813 1279.11C1005.7 1279.7 1011.15 1282.46 1015.11 1286.85C1019.08 1291.23 1021.28 1296.94 1021.28 1302.85C1021.28 1308.76 1019.08 1314.46 1015.11 1318.85C1011.15 1323.24 1005.7 1326 999.813 1326.59C993.929 1327.18 988.035 1325.57 983.272 1322.07C978.509 1318.56 975.217 1313.42 974.035 1307.62H391.332V1298.08H974.035ZM1249.88 1078.55C1248.69 1084.34 1245.4 1089.49 1240.64 1093C1235.88 1096.5 1229.98 1098.11 1224.1 1097.52C1218.21 1096.92 1212.76 1094.17 1208.8 1089.78C1204.83 1085.39 1202.63 1079.69 1202.63 1073.78C1202.63 1067.86 1204.83 1062.16 1208.8 1057.77C1212.76 1053.39 1218.21 1050.63 1224.1 1050.04C1229.98 1049.44 1235.88 1051.05 1240.64 1054.56C1245.4 1058.06 1248.69 1063.21 1249.88 1069H1450.79V1078.55H1249.88ZM1249.88 1154.91C1248.69 1160.7 1245.4 1165.85 1240.64 1169.35C1235.88 1172.86 1229.98 1174.47 1224.1 1173.87C1218.21 1173.28 1212.76 1170.52 1208.8 1166.14C1204.83 1161.75 1202.63 1156.05 1202.63 1150.13C1202.63 1144.22 1204.83 1138.52 1208.8 1134.13C1212.76 1129.75 1218.21 1126.99 1224.1 1126.39C1229.98 1125.8 1235.88 1127.41 1240.64 1130.91C1245.4 1134.42 1248.69 1139.57 1249.88 1145.36H1450.79V1154.91H1249.88ZM1279.46 610.86C1280.65 605.066 1283.94 599.917 1288.7 596.413C1293.46 592.908 1299.36 591.297 1305.24 591.891C1311.13 592.485 1316.58 595.243 1320.54 599.629C1324.51 604.016 1326.71 609.719 1326.71 615.632C1326.71 621.545 1324.51 627.248 1320.54 631.634C1316.58 636.021 1311.13 638.778 1305.24 639.373C1299.36 639.967 1293.46 638.356 1288.7 634.851C1283.94 631.346 1280.65 626.198 1279.46 620.404H868.089C866.906 626.198 863.614 631.346 858.851 634.851C854.089 638.356 848.194 639.967 842.311 639.373C836.427 638.778 830.974 636.021 827.009 631.634C823.043 627.248 820.847 621.545 820.847 615.632C820.847 609.719 823.043 604.016 827.009 599.629C830.974 595.243 836.427 592.485 842.311 591.891C848.194 591.297 854.089 592.908 858.851 596.413C863.614 599.917 866.906 605.066 868.089 610.86H1279.46ZM57.7453 381.787C58.928 375.993 62.2198 370.845 66.9826 367.34C71.7454 363.836 77.6399 362.224 83.5232 362.819C89.4066 363.413 94.8597 366.171 98.8253 370.557C102.791 374.944 104.987 380.646 104.987 386.56C104.987 392.473 102.791 398.176 98.8253 402.562C94.8597 406.948 89.4066 409.706 83.5232 410.3C77.6399 410.895 71.7454 409.283 66.9826 405.779C62.2198 402.274 58.928 397.126 57.7453 391.332H0V381.787H57.7453ZM944.446 544.047C943.263 549.841 939.972 554.989 935.209 558.494C930.446 561.998 924.552 563.61 918.668 563.015C912.785 562.421 907.332 559.663 903.366 555.277C899.401 550.89 897.205 545.188 897.205 539.274C897.205 533.361 899.401 527.658 903.366 523.272C907.332 518.886 912.785 516.128 918.668 515.534C924.552 514.939 930.446 516.551 935.209 520.055C939.972 523.56 943.263 528.708 944.446 534.502H1355.82C1357 528.708 1360.3 523.56 1365.06 520.055C1369.82 516.551 1375.72 514.939 1381.6 515.534C1387.48 516.128 1392.94 518.886 1396.9 523.272C1400.87 527.658 1403.06 533.361 1403.06 539.274C1403.06 545.188 1400.87 550.89 1396.9 555.277C1392.94 559.663 1387.48 562.421 1381.6 563.015C1375.72 563.61 1369.82 561.998 1365.06 558.494C1360.3 554.989 1357 549.841 1355.82 544.047H944.446ZM1231.26 57.7453C1237.06 58.928 1242.21 62.2198 1245.71 66.9826C1249.22 71.7454 1250.83 77.6399 1250.23 83.5232C1249.64 89.4066 1246.88 94.8597 1242.49 98.8253C1238.11 102.791 1232.4 104.987 1226.49 104.987C1220.58 104.987 1214.88 102.791 1210.49 98.8253C1206.1 94.8597 1203.34 89.4066 1202.75 83.5232C1202.16 77.6399 1203.77 71.7454 1207.27 66.9826C1210.78 62.2198 1215.93 58.928 1221.72 57.7453V0H1231.26V57.7453ZM925.834 1050.39C931.628 1051.57 936.776 1054.87 940.281 1059.63C943.785 1064.39 945.397 1070.29 944.803 1076.17C944.208 1082.05 941.45 1087.51 937.064 1091.47C932.678 1095.44 926.975 1097.63 921.062 1097.63C915.148 1097.63 909.446 1095.44 905.059 1091.47C900.673 1087.51 897.915 1082.05 897.321 1076.17C896.726 1070.29 898.338 1064.39 901.843 1059.63C905.347 1054.87 910.496 1051.57 916.289 1050.39V791.731C910.496 790.549 905.347 787.257 901.843 782.494C898.338 777.731 896.726 771.837 897.321 765.953C897.915 760.07 900.673 754.617 905.059 750.651C909.446 746.686 915.148 744.49 921.062 744.49C926.975 744.49 932.678 746.686 937.064 750.651C941.45 754.617 944.208 760.07 944.803 765.953C945.397 771.837 943.785 777.731 940.281 782.494C936.776 787.257 931.628 790.549 925.834 791.731V1050.39ZM1154.91 104.514V381.787H1450.79V391.332H1145.36V104.514C1139.57 103.332 1134.42 100.04 1130.91 95.277C1127.41 90.5142 1125.8 84.6197 1126.39 78.7363C1126.99 72.853 1129.75 67.3999 1134.13 63.4343C1138.52 59.4686 1144.22 57.273 1150.13 57.273C1156.05 57.273 1161.75 59.4686 1166.14 63.4343C1170.52 67.3999 1173.28 72.853 1173.87 78.7363C1174.47 84.6197 1172.86 90.5142 1169.35 95.277C1165.85 100.04 1160.7 103.332 1154.91 104.514ZM1231.26 180.872V305.43H1450.79V314.974H1221.72V180.872C1215.93 179.689 1210.78 176.397 1207.27 171.634C1203.77 166.872 1202.16 160.977 1202.75 155.094C1203.34 149.21 1206.1 143.757 1210.49 139.792C1214.88 135.826 1220.58 133.63 1226.49 133.63C1232.4 133.63 1238.11 135.826 1242.49 139.792C1246.88 143.757 1249.64 149.21 1250.23 155.094C1250.83 160.977 1249.22 166.872 1245.71 171.634C1242.21 176.397 1237.06 179.689 1231.26 180.872ZM620.404 639.016V992.647H696.762V1050.39C702.556 1051.57 707.704 1054.87 711.208 1059.63C714.713 1064.39 716.325 1070.29 715.73 1076.17C715.136 1082.05 712.378 1087.51 707.992 1091.47C703.605 1095.44 697.903 1097.63 691.989 1097.63C686.076 1097.63 680.373 1095.44 675.987 1091.47C671.601 1087.51 668.843 1082.05 668.248 1076.17C667.654 1070.29 669.266 1064.39 672.77 1059.63C676.275 1054.87 681.423 1051.57 687.217 1050.39V1002.19H610.86V639.016C605.066 637.834 599.917 634.542 596.413 629.779C592.908 625.016 591.297 619.122 591.891 613.238C592.485 607.355 595.243 601.902 599.629 597.936C604.016 593.971 609.719 591.775 615.632 591.775C621.545 591.775 627.248 593.971 631.634 597.936C636.021 601.902 638.778 607.355 639.373 613.238C639.967 619.122 638.356 625.016 634.851 629.779C631.346 634.542 626.198 637.834 620.404 639.016ZM592.247 534.502C593.43 528.708 596.722 523.56 601.485 520.055C606.248 516.551 612.142 514.939 618.025 515.534C623.909 516.128 629.362 518.886 633.327 523.272C637.293 527.658 639.489 533.361 639.489 539.274C639.489 545.188 637.293 550.89 633.327 555.277C629.362 559.663 623.909 562.421 618.025 563.015C612.142 563.61 606.248 561.998 601.485 558.494C596.722 554.989 593.43 549.841 592.247 544.047H544.047V773.119H409.944C408.761 778.913 405.47 784.061 400.707 787.566C395.944 791.071 390.049 792.682 384.166 792.088C378.283 791.493 372.83 788.736 368.864 784.349C364.898 779.963 362.703 774.26 362.703 768.347C362.703 762.433 364.898 756.731 368.864 752.344C372.83 747.958 378.283 745.2 384.166 744.606C390.049 744.012 395.944 745.623 400.707 749.128C405.47 752.632 408.761 757.781 409.944 763.574H534.502V534.502H592.247ZM562.659 1154.91C561.476 1160.7 558.184 1165.85 553.422 1169.35C548.659 1172.86 542.764 1174.47 536.881 1173.87C530.998 1173.28 525.545 1170.52 521.579 1166.14C517.613 1161.75 515.418 1156.05 515.418 1150.13C515.418 1144.22 517.613 1138.52 521.579 1134.13C525.545 1129.75 530.998 1126.99 536.881 1126.39C542.764 1125.8 548.659 1127.41 553.422 1130.91C558.184 1134.42 561.476 1139.57 562.659 1145.36H839.932V791.731C834.138 790.549 828.99 787.257 825.485 782.494C821.98 777.731 820.369 771.837 820.963 765.953C821.558 760.07 824.315 754.617 828.702 750.651C833.088 746.686 838.791 744.49 844.704 744.49C850.618 744.49 856.32 746.686 860.707 750.651C865.093 754.617 867.851 760.07 868.445 765.953C869.039 771.837 867.428 777.731 863.923 782.494C860.419 787.257 855.27 790.549 849.477 791.731V1154.91H562.659ZM486.301 849.477C485.119 855.27 481.827 860.419 477.064 863.923C472.301 867.428 466.407 869.039 460.524 868.445C454.64 867.851 449.187 865.093 445.221 860.707C441.256 856.32 439.06 850.618 439.06 844.704C439.06 838.791 441.256 833.088 445.221 828.702C449.187 824.315 454.64 821.558 460.524 820.963C466.407 820.369 472.301 821.98 477.064 825.485C481.827 828.99 485.119 834.138 486.301 839.932H544.047V1069H592.247C593.43 1063.21 596.722 1058.06 601.485 1054.56C606.248 1051.05 612.142 1049.44 618.025 1050.04C623.909 1050.63 629.362 1053.39 633.327 1057.77C637.293 1062.16 639.489 1067.86 639.489 1073.78C639.489 1079.69 637.293 1085.39 633.327 1089.78C629.362 1094.17 623.909 1096.92 618.025 1097.52C612.142 1098.11 606.248 1096.5 601.485 1093C596.722 1089.49 593.43 1084.34 592.247 1078.55H534.502V849.477H486.301ZM314.974 1355.82C320.768 1357 325.917 1360.3 329.421 1365.06C332.926 1369.82 334.537 1375.72 333.943 1381.6C333.349 1387.48 330.591 1392.94 326.205 1396.9C321.818 1400.87 316.115 1403.06 310.202 1403.06C304.289 1403.06 298.586 1400.87 294.2 1396.9C289.813 1392.94 287.056 1387.48 286.461 1381.6C285.867 1375.72 287.478 1369.82 290.983 1365.06C294.488 1360.3 299.636 1357 305.43 1355.82V1307.62H238.617V1450.79H229.072V1298.08H314.974V1355.82ZM1126.75 839.932C1127.93 834.138 1131.22 828.99 1135.99 825.485C1140.75 821.98 1146.64 820.369 1152.53 820.963C1158.41 821.558 1163.86 824.315 1167.83 828.702C1171.8 833.088 1173.99 838.791 1173.99 844.704C1173.99 850.618 1171.8 856.32 1167.83 860.707C1163.86 865.093 1158.41 867.851 1152.53 868.445C1146.64 869.039 1140.75 867.428 1135.99 863.923C1131.22 860.419 1127.93 855.27 1126.75 849.477H1078.55V1298.08H1307.62V1450.79H1298.08V1307.62H1069V839.932H1126.75ZM1249.88 696.762C1248.69 702.556 1245.4 707.704 1240.64 711.208C1235.88 714.713 1229.98 716.325 1224.1 715.73C1218.21 715.136 1212.76 712.378 1208.8 707.992C1204.83 703.605 1202.63 697.903 1202.63 691.989C1202.63 686.076 1204.83 680.373 1208.8 675.987C1212.76 671.601 1218.21 668.843 1224.1 668.248C1229.98 667.654 1235.88 669.266 1240.64 672.77C1245.4 676.275 1248.69 681.423 1249.88 687.217H1307.62V897.677C1313.42 898.86 1318.56 902.152 1322.07 906.914C1325.57 911.677 1327.18 917.572 1326.59 923.455C1326 929.338 1323.24 934.792 1318.85 938.757C1314.46 942.723 1308.76 944.918 1302.85 944.918C1296.94 944.918 1291.23 942.723 1286.85 938.757C1282.46 934.792 1279.7 929.338 1279.11 923.455C1278.51 917.572 1280.13 911.677 1283.63 906.914C1287.13 902.152 1292.28 898.86 1298.08 897.677V696.762H1249.88ZM944.446 1154.91C943.263 1160.7 939.972 1165.85 935.209 1169.35C930.446 1172.86 924.552 1174.47 918.668 1173.87C912.785 1173.28 907.332 1170.52 903.366 1166.14C899.401 1161.75 897.205 1156.05 897.205 1150.13C897.205 1144.22 899.401 1138.52 903.366 1134.13C907.332 1129.75 912.785 1126.99 918.668 1126.39C924.552 1125.8 930.446 1127.41 935.209 1130.91C939.972 1134.42 943.263 1139.57 944.446 1145.36H992.647V763.574H1069V696.762H868.089C866.906 702.556 863.614 707.704 858.851 711.208C854.089 714.713 848.194 716.325 842.311 715.73C836.427 715.136 830.974 712.378 827.009 707.992C823.043 703.605 820.847 697.903 820.847 691.989C820.847 686.076 823.043 680.373 827.009 675.987C830.974 671.601 836.427 668.843 842.311 668.248C848.194 667.654 854.089 669.266 858.851 672.77C863.614 676.275 866.906 681.423 868.089 687.217H1078.55V773.119H1002.19V1154.91H944.446ZM1355.82 152.715C1357 146.921 1360.3 141.773 1365.06 138.268C1369.82 134.763 1375.72 133.152 1381.6 133.746C1387.48 134.341 1392.94 137.098 1396.9 141.485C1400.87 145.871 1403.06 151.574 1403.06 157.487C1403.06 163.401 1400.87 169.103 1396.9 173.49C1392.94 177.876 1387.48 180.634 1381.6 181.228C1375.72 181.822 1369.82 180.211 1365.06 176.706C1360.3 173.202 1357 168.053 1355.82 162.26H1298.08V0H1307.62V152.715H1355.82ZM467.689 486.301V696.762H257.229C256.046 702.556 252.755 707.704 247.992 711.208C243.229 714.713 237.335 716.325 231.451 715.73C225.568 715.136 220.115 712.378 216.149 707.992C212.184 703.605 209.988 697.903 209.988 691.989C209.988 686.076 212.184 680.373 216.149 675.987C220.115 671.601 225.568 668.843 231.451 668.248C237.335 667.654 243.229 669.266 247.992 672.77C252.755 676.275 256.046 681.423 257.229 687.217H458.145V486.301C452.351 485.119 447.203 481.827 443.698 477.064C440.193 472.301 438.582 466.407 439.176 460.524C439.77 454.64 442.528 449.187 446.915 445.221C451.301 441.256 457.004 439.06 462.917 439.06C468.83 439.06 474.533 441.256 478.919 445.221C483.306 449.187 486.064 454.64 486.658 460.524C487.252 466.407 485.641 472.301 482.136 477.064C478.631 481.827 473.483 485.119 467.689 486.301ZM257.229 162.26C256.046 168.053 252.755 173.202 247.992 176.706C243.229 180.211 237.335 181.822 231.451 181.228C225.568 180.634 220.115 177.876 216.149 173.49C212.184 169.103 209.988 163.401 209.988 157.487C209.988 151.574 212.184 145.871 216.149 141.485C220.115 137.098 225.568 134.341 231.451 133.746C237.335 133.152 243.229 134.763 247.992 138.268C252.755 141.773 256.046 146.921 257.229 152.715H381.787V0H391.332V162.26H257.229ZM544.047 180.872V314.974H391.332V620.404H333.587C332.404 626.198 329.112 631.346 324.349 634.851C319.586 638.356 313.692 639.967 307.809 639.373C301.925 638.778 296.472 636.021 292.507 631.634C288.541 627.248 286.345 621.545 286.345 615.632C286.345 609.719 288.541 604.016 292.507 599.629C296.472 595.243 301.925 592.485 307.809 591.891C313.692 591.297 319.586 592.908 324.349 596.413C329.112 599.917 332.404 605.066 333.587 610.86H381.787V305.43H534.502V180.872C528.708 179.689 523.56 176.397 520.055 171.634C516.551 166.872 514.939 160.977 515.534 155.094C516.128 149.21 518.886 143.757 523.272 139.792C527.658 135.826 533.361 133.63 539.274 133.63C545.188 133.63 550.89 135.826 555.277 139.792C559.663 143.757 562.421 149.21 563.015 155.094C563.61 160.977 561.998 166.872 558.494 171.634C554.989 176.397 549.841 179.689 544.047 180.872ZM486.301 391.332C485.119 397.126 481.827 402.274 477.064 405.779C472.301 409.283 466.407 410.895 460.524 410.3C454.64 409.706 449.187 406.948 445.221 402.562C441.256 398.176 439.06 392.473 439.06 386.56C439.06 380.646 441.256 374.944 445.221 370.557C449.187 366.171 454.64 363.413 460.524 362.819C466.407 362.224 472.301 363.836 477.064 367.34C481.827 370.845 485.119 375.993 486.301 381.787H610.86V180.872C605.066 179.689 599.917 176.397 596.413 171.634C592.908 166.872 591.297 160.977 591.891 155.094C592.485 149.21 595.243 143.757 599.629 139.792C604.016 135.826 609.719 133.63 615.632 133.63C621.545 133.63 627.248 135.826 631.634 139.792C636.021 143.757 638.778 149.21 639.373 155.094C639.967 160.977 638.356 166.872 634.851 171.634C631.346 176.397 626.198 179.689 620.404 180.872V391.332H486.301ZM562.659 85.9021C561.476 91.6959 558.184 96.8443 553.422 100.349C548.659 103.854 542.764 105.465 536.881 104.871C530.998 104.276 525.545 101.519 521.579 97.1322C517.613 92.7457 515.418 87.0431 515.418 81.1298C515.418 75.2165 517.613 69.5138 521.579 65.1274C525.545 60.741 530.998 57.9833 536.881 57.3889C542.764 56.7946 548.659 58.4059 553.422 61.9106C558.184 65.4153 561.476 70.5636 562.659 76.3574H696.762V286.818C702.556 288 707.704 291.292 711.208 296.055C714.713 300.818 716.325 306.712 715.73 312.596C715.136 318.479 712.378 323.932 707.992 327.898C703.605 331.863 697.903 334.059 691.989 334.059C686.076 334.059 680.373 331.863 675.987 327.898C671.601 323.932 668.843 318.479 668.248 312.596C667.654 306.712 669.266 300.818 672.77 296.055C676.275 291.292 681.423 288 687.217 286.818V85.9021H562.659ZM1050.39 1374.43C1051.57 1368.64 1054.87 1363.49 1059.63 1359.99C1064.39 1356.48 1070.29 1354.87 1076.17 1355.47C1082.05 1356.06 1087.51 1358.82 1091.47 1363.2C1095.44 1367.59 1097.63 1373.29 1097.63 1379.21C1097.63 1385.12 1095.44 1390.82 1091.47 1395.21C1087.51 1399.6 1082.05 1402.35 1076.17 1402.95C1070.29 1403.54 1064.39 1401.93 1059.63 1398.43C1054.87 1394.92 1051.57 1389.77 1050.39 1383.98H467.689V1450.79H458.145V1374.43H1050.39ZM1154.91 715.374V763.574H1231.26V925.834H1154.91V1221.72H1383.98V1450.79H1374.43V1231.26H1145.36V916.289H1221.72V773.119H1145.36V715.374C1139.57 714.191 1134.42 710.899 1130.91 706.137C1127.41 701.374 1125.8 695.479 1126.39 689.596C1126.99 683.713 1129.75 678.259 1134.13 674.294C1138.52 670.328 1144.22 668.133 1150.13 668.133C1156.05 668.133 1161.75 670.328 1166.14 674.294C1170.52 678.259 1173.28 683.713 1173.87 689.596C1174.47 695.479 1172.86 701.374 1169.35 706.137C1165.85 710.899 1160.7 714.191 1154.91 715.374ZM257.229 85.9021C256.046 91.6959 252.755 96.8443 247.992 100.349C243.229 103.854 237.335 105.465 231.451 104.871C225.568 104.276 220.115 101.519 216.149 97.1322C212.184 92.7457 209.988 87.0431 209.988 81.1298C209.988 75.2165 212.184 69.5138 216.149 65.1274C220.115 60.741 225.568 57.9833 231.451 57.3889C237.335 56.7946 243.229 58.4059 247.992 61.9106C252.755 65.4153 256.046 70.5636 257.229 76.3574H305.43V9.54468H229.072V0H314.974V85.9021H257.229ZM791.731 238.617C790.549 244.411 787.257 249.559 782.494 253.064C777.731 256.569 771.837 258.18 765.953 257.586C760.07 256.991 754.617 254.233 750.651 249.847C746.686 245.461 744.49 239.758 744.49 233.845C744.49 227.931 746.686 222.229 750.651 217.842C754.617 213.456 760.07 210.698 765.953 210.104C771.837 209.509 777.731 211.121 782.494 214.626C787.257 218.13 790.549 223.279 791.731 229.072H916.289V0H1154.91V9.54468H925.834V238.617H791.731ZM562.659 9.54468C562.032 12.6156 560.807 15.533 559.053 18.1303C557.298 20.7276 555.05 22.9539 552.435 24.6822C549.821 26.4105 546.891 27.6069 543.814 28.2031C540.737 28.7992 537.573 28.7835 534.502 28.1568C531.431 27.5301 528.514 26.3047 525.917 24.5505C523.319 22.7963 521.093 20.5477 519.365 17.9331C515.874 12.6527 514.624 6.20195 515.89 0L525.769 0C525.009 2.15885 524.778 4.46831 525.096 6.73477C525.413 9.00124 526.268 11.1587 527.591 13.0262C528.914 14.8937 530.665 16.417 532.698 17.4682C534.731 18.5195 536.986 19.0681 539.274 19.0681C541.563 19.0681 543.818 18.5195 545.851 17.4682C547.884 16.417 549.635 14.8937 550.958 13.0262C552.28 11.1587 553.136 9.00124 553.453 6.73477C553.77 4.46831 553.54 2.15885 552.78 0L849.477 0V162.26H763.574V104.514C757.781 103.332 752.632 100.04 749.128 95.277C745.623 90.5142 744.012 84.6197 744.606 78.7363C745.2 72.853 747.958 67.3999 752.344 63.4343C756.731 59.4686 762.433 57.273 768.347 57.273C774.26 57.273 779.963 59.4686 784.349 63.4343C788.736 67.3999 791.493 72.853 792.088 78.7363C792.682 84.6197 791.071 90.5142 787.566 95.277C784.061 100.04 778.913 103.332 773.119 104.514V152.715H839.932V9.54468H562.659ZM562.659 467.689C561.476 473.483 558.184 478.631 553.422 482.136C548.659 485.641 542.764 487.252 536.881 486.658C530.998 486.064 525.545 483.306 521.579 478.919C517.613 474.533 515.418 468.83 515.418 462.917C515.418 457.004 517.613 451.301 521.579 446.915C525.545 442.528 530.998 439.77 536.881 439.176C542.764 438.582 548.659 440.193 553.422 443.698C558.184 447.203 561.476 452.351 562.659 458.145H653.811L806.526 305.43H992.647V104.514C986.853 103.332 981.705 100.04 978.2 95.277C974.695 90.5142 973.084 84.6197 973.678 78.7363C974.273 72.853 977.03 67.3999 981.417 63.4343C985.803 59.4686 991.506 57.273 997.419 57.273C1003.33 57.273 1009.04 59.4686 1013.42 63.4343C1017.81 67.3999 1020.57 72.853 1021.16 78.7363C1021.75 84.6197 1020.14 90.5142 1016.64 95.277C1013.13 100.04 1007.99 103.332 1002.19 104.514V314.974H810.487L657.772 467.689H562.659ZM696.762 897.677C702.556 898.86 707.704 902.152 711.208 906.914C714.713 911.677 716.325 917.572 715.73 923.455C715.136 929.338 712.378 934.792 707.992 938.757C703.605 942.723 697.903 944.918 691.989 944.918C686.076 944.918 680.373 942.723 675.987 938.757C671.601 934.792 668.843 929.338 668.248 923.455C667.654 917.572 669.266 911.677 672.77 906.914C676.275 902.152 681.423 898.86 687.217 897.677V532.545L837.975 381.787H1069V104.514C1063.21 103.332 1058.06 100.04 1054.56 95.277C1051.05 90.5142 1049.44 84.6197 1050.04 78.7363C1050.63 72.853 1053.39 67.3999 1057.77 63.4343C1062.16 59.4686 1067.86 57.273 1073.78 57.273C1079.69 57.273 1085.39 59.4686 1089.78 63.4343C1094.17 67.3999 1096.92 72.853 1097.52 78.7363C1098.11 84.6197 1096.5 90.5142 1093 95.277C1089.49 100.04 1084.34 103.332 1078.55 104.514V391.332H841.889L696.762 536.459V897.677ZM773.119 1050.39C778.913 1051.57 784.061 1054.87 787.566 1059.63C791.071 1064.39 792.682 1070.29 792.088 1076.17C791.493 1082.05 788.736 1087.51 784.349 1091.47C779.963 1095.44 774.26 1097.63 768.347 1097.63C762.433 1097.63 756.731 1095.44 752.344 1091.47C747.958 1087.51 745.2 1082.05 744.606 1076.17C744.012 1070.29 745.623 1064.39 749.128 1059.63C752.632 1054.87 757.781 1051.57 763.574 1050.39V575.496L880.926 458.145H1432.18C1433.11 453.559 1435.38 449.35 1438.69 446.04C1442 442.731 1446.21 440.468 1450.79 439.533V449.411C1447.99 450.395 1445.57 452.223 1443.86 454.642C1442.15 457.061 1441.23 459.952 1441.23 462.917C1441.23 465.882 1442.15 468.773 1443.86 471.192C1445.57 473.611 1447.99 475.439 1450.79 476.423V486.301C1446.21 485.366 1442 483.103 1438.69 479.794C1435.38 476.485 1433.11 472.275 1432.18 467.689H884.84L773.119 579.41V1050.39ZM85.9021 744.962C91.6959 746.145 96.8443 749.437 100.349 754.2C103.854 758.962 105.465 764.857 104.871 770.74C104.276 776.624 101.519 782.077 97.1322 786.042C92.7457 790.008 87.0431 792.204 81.1298 792.204C75.2165 792.204 69.5138 790.008 65.1274 786.042C60.741 782.077 57.9833 776.624 57.3889 770.74C56.7946 764.857 58.4059 758.962 61.9106 754.2C65.4153 749.437 70.5636 746.145 76.3574 744.962V728.211L305.43 499.139V229.072H458.145V0H467.689V238.617H314.974V503.052L85.9021 732.125V744.962ZM238.617 257.229V464.874L9.54468 693.946V992.647H134.103C135.285 986.853 138.577 981.705 143.34 978.2C148.103 974.695 153.997 973.084 159.881 973.678C165.764 974.273 171.217 977.03 175.183 981.417C179.148 985.803 181.344 991.506 181.344 997.419C181.344 1003.33 179.148 1009.04 175.183 1013.42C171.217 1017.81 165.764 1020.57 159.881 1021.16C153.997 1021.75 148.103 1020.14 143.34 1016.64C138.577 1013.13 135.285 1007.99 134.103 1002.19H0V690.033L229.072 460.96V257.229C223.279 256.046 218.13 252.755 214.626 247.992C211.121 243.229 209.509 237.335 210.104 231.451C210.698 225.568 213.456 220.115 217.842 216.149C222.229 212.184 227.931 209.988 233.845 209.988C239.758 209.988 245.461 212.184 249.847 216.149C254.233 220.115 256.991 225.568 257.586 231.451C258.18 237.335 256.569 243.229 253.064 247.992C249.559 252.755 244.411 256.046 238.617 257.229ZM162.26 333.587V426.695L0 588.955V575.496L152.715 422.782V333.587C146.921 332.404 141.773 329.112 138.268 324.349C134.763 319.586 133.152 313.692 133.746 307.809C134.341 301.925 137.098 296.472 141.485 292.507C145.871 288.541 151.574 286.345 157.487 286.345C163.401 286.345 169.103 288.541 173.49 292.507C177.876 296.472 180.634 301.925 181.228 307.809C181.822 313.692 180.211 319.586 176.706 324.349C173.202 329.112 168.053 332.404 162.26 333.587ZM57.7453 152.715C58.928 146.921 62.2198 141.773 66.9826 138.268C71.7454 134.763 77.6399 133.152 83.5232 133.746C89.4066 134.341 94.8597 137.098 98.8253 141.485C102.791 145.871 104.987 151.574 104.987 157.487C104.987 163.401 102.791 169.103 98.8253 173.49C94.8597 177.876 89.4066 180.634 83.5232 181.228C77.6399 181.822 71.7454 180.211 66.9826 176.706C62.2198 173.202 58.928 168.053 57.7453 162.26H44.9077L0 207.167V193.757L40.9944 152.715H57.7453ZM1326.23 238.617C1325.05 244.411 1321.76 249.559 1317 253.064C1312.23 256.569 1306.34 258.18 1300.46 257.586C1294.57 256.991 1289.12 254.233 1285.15 249.847C1281.19 245.461 1278.99 239.758 1278.99 233.845C1278.99 227.931 1281.19 222.229 1285.15 217.842C1289.12 213.456 1294.57 210.698 1300.46 210.104C1306.34 209.509 1312.23 211.121 1317 214.626C1321.76 218.13 1325.05 223.279 1326.23 229.072H1415.43L1450.79 193.709V207.167L1419.34 238.617H1326.23ZM1249.88 1002.19C1248.69 1007.99 1245.4 1013.13 1240.64 1016.64C1235.88 1020.14 1229.98 1021.75 1224.1 1021.16C1218.21 1020.57 1212.76 1017.81 1208.8 1013.42C1204.83 1009.04 1202.63 1003.33 1202.63 997.419C1202.63 991.506 1204.83 985.803 1208.8 981.417C1212.76 977.03 1218.21 974.273 1224.1 973.678C1229.98 973.084 1235.88 974.695 1240.64 978.2C1245.4 981.705 1248.69 986.853 1249.88 992.647H1374.43V651.854L1450.79 575.496V588.955L1383.98 655.767V1002.19H1249.88ZM257.229 1154.91C256.046 1160.7 252.755 1165.85 247.992 1169.35C243.229 1172.86 237.335 1174.47 231.451 1173.87C225.568 1173.28 220.115 1170.52 216.149 1166.14C212.184 1161.75 209.988 1156.05 209.988 1150.13C209.988 1144.22 212.184 1138.52 216.149 1134.13C220.115 1129.75 225.568 1126.99 231.451 1126.39C237.335 1125.8 243.229 1127.41 247.992 1130.91C252.755 1134.42 256.046 1139.57 257.229 1145.36H305.43V1037.55L193.709 925.834H104.514C103.332 931.628 100.04 936.776 95.277 940.281C90.5142 943.785 84.6197 945.397 78.7363 944.803C72.853 944.208 67.3999 941.45 63.4343 937.064C59.4686 932.678 57.273 926.975 57.273 921.062C57.273 915.148 59.4686 909.446 63.4343 905.059C67.3999 900.673 72.853 897.915 78.7363 897.321C84.6197 896.726 90.5142 898.338 95.277 901.843C100.04 905.347 103.332 910.496 104.514 916.289H197.623L314.974 1033.64V1154.91H257.229ZM974.035 1221.72C975.217 1215.93 978.509 1210.78 983.272 1207.27C988.035 1203.77 993.929 1202.16 999.813 1202.75C1005.7 1203.34 1011.15 1206.1 1015.11 1210.49C1019.08 1214.88 1021.28 1220.58 1021.28 1226.49C1021.28 1232.4 1019.08 1238.11 1015.11 1242.49C1011.15 1246.88 1005.7 1249.64 999.813 1250.23C993.929 1250.83 988.035 1249.22 983.272 1245.71C978.509 1242.21 975.217 1237.06 974.035 1231.26H458.145V961.149L270.114 773.119H180.872C179.689 778.913 176.397 784.061 171.634 787.566C166.872 791.071 160.977 792.682 155.094 792.088C149.21 791.493 143.757 788.736 139.792 784.349C135.826 779.963 133.63 774.26 133.63 768.347C133.63 762.433 135.826 756.731 139.792 752.344C143.757 747.958 149.21 745.2 155.094 744.606C160.977 744.012 166.872 745.623 171.634 749.128C176.397 752.632 179.689 757.781 180.872 763.574H273.932L467.689 957.331V1221.72H974.035ZM257.229 1231.26C256.046 1237.06 252.755 1242.21 247.992 1245.71C243.229 1249.22 237.335 1250.83 231.451 1250.23C225.568 1249.64 220.115 1246.88 216.149 1242.49C212.184 1238.11 209.988 1232.4 209.988 1226.49C209.988 1220.58 212.184 1214.88 216.149 1210.49C220.115 1206.1 225.568 1203.34 231.451 1202.75C237.335 1202.16 243.229 1203.77 247.992 1207.27C252.755 1210.78 256.046 1215.93 257.229 1221.72H381.787V999.376L231.888 849.477H104.514C103.332 855.27 100.04 860.419 95.277 863.923C90.5142 867.428 84.6197 869.039 78.7363 868.445C72.853 867.851 67.3999 865.093 63.4343 860.707C59.4686 856.32 57.273 850.618 57.273 844.704C57.273 838.791 59.4686 833.088 63.4343 828.702C67.3999 824.315 72.853 821.558 78.7363 820.963C84.6197 820.369 90.5142 821.98 95.277 825.485C100.04 828.99 103.332 834.138 104.514 839.932H235.801L391.332 995.462V1231.26H257.229ZM162.26 189.939V197.623L44.9077 314.974H0V305.43H40.9944L152.715 193.709V0H162.26V189.939ZM9.54468 1432.18C14.1304 1433.11 18.3398 1435.38 21.6492 1438.69C24.9585 1442 27.2216 1446.21 28.1568 1450.79H18.2781C17.6521 1449.02 16.6827 1447.38 15.4251 1445.98C14.1676 1444.59 12.6466 1443.45 10.949 1442.64C9.25153 1441.83 7.4108 1441.36 5.5321 1441.26C3.65339 1441.16 1.77353 1441.43 0 1442.06L0 1221.72H85.9021V1450.79H76.3574V1231.26H9.54468V1432.18ZM162.26 1150.13V1450.79H152.715V1154.91H0V1145.36H162.26V1150.13ZM81.1298 85.9021H0V76.3574H76.3574V0H85.9021V85.9021H81.1298ZM1383.98 76.3574H1450.79V85.9021H1374.43V0H1383.98V76.3574ZM1231.26 1379.21V1450.79H1221.72V1383.98H1154.91V1450.79H1145.36V1374.43H1231.26V1379.21ZM0 439.533C3.46527 438.843 7.04023 438.928 10.4687 439.782C13.8972 440.636 17.0943 442.238 19.8309 444.473C22.5675 446.708 24.7759 449.521 26.2978 452.709C27.8198 455.898 28.6176 459.384 28.634 462.917C28.6348 466.456 27.8484 469.95 26.3318 473.148C24.8153 476.345 22.6066 479.165 19.8657 481.404C17.1248 483.642 13.9203 485.243 10.4845 486.09C7.04857 486.937 3.46728 487.009 0 486.301L0 476.423C2.15885 477.182 4.46831 477.413 6.73477 477.096C9.00124 476.779 11.1587 475.923 13.0262 474.6C14.8937 473.278 16.417 471.526 17.4682 469.494C18.5195 467.461 19.0681 465.206 19.0681 462.917C19.0681 460.628 18.5195 458.373 17.4682 456.34C16.417 454.308 14.8937 452.557 13.0262 451.234C11.1587 449.911 9.00124 449.055 6.73477 448.738C4.46831 448.421 2.15885 448.652 0 449.411L0 439.533ZM381.787 1298.08H391.332V1450.79H381.787V1298.08ZM562.659 1450.79H552.78C551.796 1447.99 549.969 1445.57 547.55 1443.86C545.13 1442.15 542.239 1441.23 539.274 1441.23C536.31 1441.23 533.419 1442.15 530.999 1443.86C528.58 1445.57 526.752 1447.99 525.769 1450.79H515.89C516.985 1445.4 519.912 1440.55 524.174 1437.06C528.435 1433.58 533.77 1431.68 539.274 1431.68C544.779 1431.68 550.114 1433.58 554.375 1437.06C558.637 1440.55 561.564 1445.4 562.659 1450.79ZM28.1568 0C28.922 3.86172 28.7237 7.8525 27.5796 11.6194C26.4354 15.3862 24.3806 18.8131 21.5968 21.5968C18.8131 24.3806 15.3862 26.4354 11.6194 27.5796C7.8525 28.7237 3.86172 28.922 0 28.1568L0 18.2781C2.54947 19.1819 5.30283 19.345 7.94119 18.7485C10.5795 18.152 12.9949 16.8203 14.9076 14.9076C16.8203 12.9949 18.152 10.5795 18.7485 7.94119C19.345 5.30283 19.1819 2.54947 18.2781 0L28.1568 0ZM1432.18 0H1442.06C1441.43 1.77353 1441.16 3.65339 1441.26 5.5321C1441.36 7.4108 1441.83 9.25153 1442.64 10.949C1443.45 12.6466 1444.59 14.1676 1445.98 15.4251C1447.38 16.6827 1449.02 17.6521 1450.79 18.2781V28.1568C1447.72 27.5307 1444.8 26.3056 1442.2 24.5516C1439.61 22.7976 1437.38 20.5489 1435.65 17.9342C1433.92 15.3194 1432.73 12.3898 1432.13 9.31259C1431.54 6.23539 1431.55 3.07094 1432.18 0ZM1450.79 1432.18V1442.06C1448.78 1442.77 1446.95 1443.92 1445.43 1445.43C1443.92 1446.95 1442.77 1448.78 1442.06 1450.79H1432.18C1433.11 1446.21 1435.38 1442 1438.69 1438.69C1442 1435.38 1446.21 1433.11 1450.79 1432.18ZM462.917 477.234C464.797 477.234 466.659 476.864 468.396 476.144C470.133 475.425 471.711 474.37 473.041 473.041C474.37 471.711 475.425 470.133 476.144 468.396C476.864 466.659 477.234 464.797 477.234 462.917C477.234 461.037 476.864 459.175 476.144 457.438C475.425 455.701 474.37 454.123 473.041 452.793C471.711 451.464 470.133 450.409 468.396 449.69C466.659 448.97 464.797 448.6 462.917 448.6C459.12 448.6 455.478 450.108 452.793 452.793C450.108 455.478 448.6 459.12 448.6 462.917C448.6 466.714 450.108 470.356 452.793 473.041C455.478 475.726 459.12 477.234 462.917 477.234ZM462.917 400.877C466.714 400.877 470.356 399.368 473.041 396.683C475.726 393.998 477.234 390.357 477.234 386.56C477.234 382.762 475.726 379.121 473.041 376.436C470.356 373.751 466.714 372.243 462.917 372.243C459.12 372.243 455.478 373.751 452.793 376.436C450.108 379.121 448.6 382.762 448.6 386.56C448.6 390.357 450.108 393.998 452.793 396.683C455.478 399.368 459.12 400.877 462.917 400.877ZM539.274 477.234C541.155 477.234 543.016 476.864 544.753 476.144C546.49 475.425 548.069 474.37 549.398 473.041C550.728 471.711 551.782 470.133 552.502 468.396C553.221 466.659 553.591 464.797 553.591 462.917C553.591 461.037 553.221 459.175 552.502 457.438C551.782 455.701 550.728 454.123 549.398 452.793C548.069 451.464 546.49 450.409 544.753 449.69C543.016 448.97 541.155 448.6 539.274 448.6C535.477 448.6 531.836 450.108 529.151 452.793C526.466 455.478 524.957 459.12 524.957 462.917C524.957 466.714 526.466 470.356 529.151 473.041C531.836 475.726 535.477 477.234 539.274 477.234ZM615.632 553.591C619.429 553.591 623.071 552.083 625.756 549.398C628.441 546.713 629.949 543.072 629.949 539.274C629.949 535.477 628.441 531.836 625.756 529.151C623.071 526.466 619.429 524.957 615.632 524.957C611.835 524.957 608.193 526.466 605.508 529.151C602.823 531.836 601.315 535.477 601.315 539.274C601.315 543.072 602.823 546.713 605.508 549.398C608.193 552.083 611.835 553.591 615.632 553.591ZM615.632 629.949C619.429 629.949 623.071 628.441 625.756 625.756C628.441 623.071 629.949 619.429 629.949 615.632C629.949 611.835 628.441 608.193 625.756 605.508C623.071 602.823 619.429 601.315 615.632 601.315C611.835 601.315 608.193 602.823 605.508 605.508C602.823 608.193 601.315 611.835 601.315 615.632C601.315 619.429 602.823 623.071 605.508 625.756C608.193 628.441 611.835 629.949 615.632 629.949ZM386.56 782.664C390.357 782.664 393.998 781.155 396.683 778.47C399.368 775.785 400.877 772.144 400.877 768.347C400.877 764.55 399.368 760.908 396.683 758.223C393.998 755.538 390.357 754.03 386.56 754.03C382.762 754.03 379.121 755.538 376.436 758.223C373.751 760.908 372.243 764.55 372.243 768.347C372.243 772.144 373.751 775.785 376.436 778.47C379.121 781.155 382.762 782.664 386.56 782.664ZM462.917 859.021C466.714 859.021 470.356 857.513 473.041 854.828C475.726 852.143 477.234 848.501 477.234 844.704C477.234 840.907 475.726 837.266 473.041 834.581C470.356 831.896 466.714 830.387 462.917 830.387C459.12 830.387 455.478 831.896 452.793 834.581C450.108 837.266 448.6 840.907 448.6 844.704C448.6 848.501 450.108 852.143 452.793 854.828C455.478 857.513 459.12 859.021 462.917 859.021ZM615.632 1088.09C619.429 1088.09 623.071 1086.59 625.756 1083.9C628.441 1081.22 629.949 1077.57 629.949 1073.78C629.949 1069.98 628.441 1066.34 625.756 1063.65C623.071 1060.97 619.429 1059.46 615.632 1059.46C611.835 1059.46 608.193 1060.97 605.508 1063.65C602.823 1066.34 601.315 1069.98 601.315 1073.78C601.315 1077.57 602.823 1081.22 605.508 1083.9C608.193 1086.59 611.835 1088.09 615.632 1088.09ZM539.274 1164.45C543.072 1164.45 546.713 1162.94 549.398 1160.26C552.083 1157.57 553.591 1153.93 553.591 1150.13C553.591 1146.34 552.083 1142.7 549.398 1140.01C546.713 1137.33 543.072 1135.82 539.274 1135.82C535.477 1135.82 531.836 1137.33 529.151 1140.01C526.466 1142.7 524.957 1146.34 524.957 1150.13C524.957 1153.93 526.466 1157.57 529.151 1160.26C531.836 1162.94 535.477 1164.45 539.274 1164.45ZM691.989 1088.09C695.786 1088.09 699.428 1086.59 702.113 1083.9C704.798 1081.22 706.306 1077.57 706.306 1073.78C706.306 1069.98 704.798 1066.34 702.113 1063.65C699.428 1060.97 695.786 1059.46 691.989 1059.46C688.192 1059.46 684.551 1060.97 681.866 1063.65C679.181 1066.34 677.672 1069.98 677.672 1073.78C677.672 1077.57 679.181 1081.22 681.866 1083.9C684.551 1086.59 688.192 1088.09 691.989 1088.09ZM691.989 935.379C695.786 935.379 699.428 933.87 702.113 931.185C704.798 928.5 706.306 924.859 706.306 921.062C706.306 917.265 704.798 913.623 702.113 910.938C699.428 908.253 695.786 906.745 691.989 906.745C688.192 906.745 684.551 908.253 681.866 910.938C679.181 913.623 677.672 917.265 677.672 921.062C677.672 924.859 679.181 928.5 681.866 931.185C684.551 933.87 688.192 935.379 691.989 935.379ZM768.347 1088.09C772.144 1088.09 775.785 1086.59 778.47 1083.9C781.155 1081.22 782.664 1077.57 782.664 1073.78C782.664 1069.98 781.155 1066.34 778.47 1063.65C775.785 1060.97 772.144 1059.46 768.347 1059.46C764.55 1059.46 760.908 1060.97 758.223 1063.65C755.538 1066.34 754.03 1069.98 754.03 1073.78C754.03 1077.57 755.538 1081.22 758.223 1083.9C760.908 1086.59 764.55 1088.09 768.347 1088.09ZM921.062 1164.45C924.859 1164.45 928.5 1162.94 931.185 1160.26C933.87 1157.57 935.379 1153.93 935.379 1150.13C935.379 1146.34 933.87 1142.7 931.185 1140.01C928.5 1137.33 924.859 1135.82 921.062 1135.82C917.265 1135.82 913.623 1137.33 910.938 1140.01C908.253 1142.7 906.745 1146.34 906.745 1150.13C906.745 1153.93 908.253 1157.57 910.938 1160.26C913.623 1162.94 917.265 1164.45 921.062 1164.45ZM921.062 1088.09C924.859 1088.09 928.5 1086.59 931.185 1083.9C933.87 1081.22 935.379 1077.57 935.379 1073.78C935.379 1069.98 933.87 1066.34 931.185 1063.65C928.5 1060.97 924.859 1059.46 921.062 1059.46C917.265 1059.46 913.623 1060.97 910.938 1063.65C908.253 1066.34 906.745 1069.98 906.745 1073.78C906.745 1077.57 908.253 1081.22 910.938 1083.9C913.623 1086.59 917.265 1088.09 921.062 1088.09ZM844.704 782.664C848.501 782.664 852.143 781.155 854.828 778.47C857.513 775.785 859.021 772.144 859.021 768.347C859.021 764.55 857.513 760.908 854.828 758.223C852.143 755.538 848.501 754.03 844.704 754.03C840.907 754.03 837.266 755.538 834.581 758.223C831.896 760.908 830.387 764.55 830.387 768.347C830.387 772.144 831.896 775.785 834.581 778.47C837.266 781.155 840.907 782.664 844.704 782.664ZM921.062 782.664C924.859 782.664 928.5 781.155 931.185 778.47C933.87 775.785 935.379 772.144 935.379 768.347C935.379 764.55 933.87 760.908 931.185 758.223C928.5 755.538 924.859 754.03 921.062 754.03C917.265 754.03 913.623 755.538 910.938 758.223C908.253 760.908 906.745 764.55 906.745 768.347C906.745 772.144 908.253 775.785 910.938 778.47C913.623 781.155 917.265 782.664 921.062 782.664ZM997.419 1240.81C1001.22 1240.81 1004.86 1239.3 1007.54 1236.62C1010.23 1233.93 1011.74 1230.29 1011.74 1226.49C1011.74 1222.69 1010.23 1219.05 1007.54 1216.37C1004.86 1213.68 1001.22 1212.17 997.419 1212.17C993.622 1212.17 989.98 1213.68 987.295 1216.37C984.61 1219.05 983.102 1222.69 983.102 1226.49C983.102 1230.29 984.61 1233.93 987.295 1236.62C989.98 1239.3 993.622 1240.81 997.419 1240.81ZM997.419 1317.17C1001.22 1317.17 1004.86 1315.66 1007.54 1312.97C1010.23 1310.29 1011.74 1306.65 1011.74 1302.85C1011.74 1299.05 1010.23 1295.41 1007.54 1292.73C1004.86 1290.04 1001.22 1288.53 997.419 1288.53C993.622 1288.53 989.98 1290.04 987.295 1292.73C984.61 1295.41 983.102 1299.05 983.102 1302.85C983.102 1306.65 984.61 1310.29 987.295 1312.97C989.98 1315.66 993.622 1317.17 997.419 1317.17ZM1073.78 1393.52C1077.57 1393.52 1081.22 1392.01 1083.9 1389.33C1086.59 1386.64 1088.09 1383 1088.09 1379.21C1088.09 1375.41 1086.59 1371.77 1083.9 1369.08C1081.22 1366.4 1077.57 1364.89 1073.78 1364.89C1069.98 1364.89 1066.34 1366.4 1063.65 1369.08C1060.97 1371.77 1059.46 1375.41 1059.46 1379.21C1059.46 1383 1060.97 1386.64 1063.65 1389.33C1066.34 1392.01 1069.98 1393.52 1073.78 1393.52ZM1150.13 706.306C1153.93 706.306 1157.57 704.798 1160.26 702.113C1162.94 699.428 1164.45 695.786 1164.45 691.989C1164.45 688.192 1162.94 684.551 1160.26 681.866C1157.57 679.181 1153.93 677.672 1150.13 677.672C1146.34 677.672 1142.7 679.181 1140.01 681.866C1137.33 684.551 1135.82 688.192 1135.82 691.989C1135.82 695.786 1137.33 699.428 1140.01 702.113C1142.7 704.798 1146.34 706.306 1150.13 706.306ZM1150.13 859.021C1153.93 859.021 1157.57 857.513 1160.26 854.828C1162.94 852.143 1164.45 848.501 1164.45 844.704C1164.45 840.907 1162.94 837.266 1160.26 834.581C1157.57 831.896 1153.93 830.387 1150.13 830.387C1146.34 830.387 1142.7 831.896 1140.01 834.581C1137.33 837.266 1135.82 840.907 1135.82 844.704C1135.82 848.501 1137.33 852.143 1140.01 854.828C1142.7 857.513 1146.34 859.021 1150.13 859.021ZM1226.49 706.306C1230.29 706.306 1233.93 704.798 1236.62 702.113C1239.3 699.428 1240.81 695.786 1240.81 691.989C1240.81 688.192 1239.3 684.551 1236.62 681.866C1233.93 679.181 1230.29 677.672 1226.49 677.672C1222.69 677.672 1219.05 679.181 1216.37 681.866C1213.68 684.551 1212.17 688.192 1212.17 691.989C1212.17 695.786 1213.68 699.428 1216.37 702.113C1219.05 704.798 1222.69 706.306 1226.49 706.306ZM1302.85 629.949C1306.65 629.949 1310.29 628.441 1312.97 625.756C1315.66 623.071 1317.17 619.429 1317.17 615.632C1317.17 611.835 1315.66 608.193 1312.97 605.508C1310.29 602.823 1306.65 601.315 1302.85 601.315C1299.05 601.315 1295.41 602.823 1292.73 605.508C1290.04 608.193 1288.53 611.835 1288.53 615.632C1288.53 619.429 1290.04 623.071 1292.73 625.756C1295.41 628.441 1299.05 629.949 1302.85 629.949ZM844.704 629.949C848.501 629.949 852.143 628.441 854.828 625.756C857.513 623.071 859.021 619.429 859.021 615.632C859.021 611.835 857.513 608.193 854.828 605.508C852.143 602.823 848.501 601.315 844.704 601.315C840.907 601.315 837.266 602.823 834.581 605.508C831.896 608.193 830.387 611.835 830.387 615.632C830.387 619.429 831.896 623.071 834.581 625.756C837.266 628.441 840.907 629.949 844.704 629.949ZM844.704 706.306C848.501 706.306 852.143 704.798 854.828 702.113C857.513 699.428 859.021 695.786 859.021 691.989C859.021 688.192 857.513 684.551 854.828 681.866C852.143 679.181 848.501 677.672 844.704 677.672C840.907 677.672 837.266 679.181 834.581 681.866C831.896 684.551 830.387 688.192 830.387 691.989C830.387 695.786 831.896 699.428 834.581 702.113C837.266 704.798 840.907 706.306 844.704 706.306ZM921.062 553.591C924.859 553.591 928.5 552.083 931.185 549.398C933.87 546.713 935.379 543.072 935.379 539.274C935.379 535.477 933.87 531.836 931.185 529.151C928.5 526.466 924.859 524.957 921.062 524.957C917.265 524.957 913.623 526.466 910.938 529.151C908.253 531.836 906.745 535.477 906.745 539.274C906.745 543.072 908.253 546.713 910.938 549.398C913.623 552.083 917.265 553.591 921.062 553.591ZM1379.21 553.591C1383 553.591 1386.64 552.083 1389.33 549.398C1392.01 546.713 1393.52 543.072 1393.52 539.274C1393.52 535.477 1392.01 531.836 1389.33 529.151C1386.64 526.466 1383 524.957 1379.21 524.957C1375.41 524.957 1371.77 526.466 1369.08 529.151C1366.4 531.836 1364.89 535.477 1364.89 539.274C1364.89 543.072 1366.4 546.713 1369.08 549.398C1371.77 552.083 1375.41 553.591 1379.21 553.591ZM1302.85 248.162C1306.65 248.162 1310.29 246.653 1312.97 243.968C1315.66 241.283 1317.17 237.642 1317.17 233.845C1317.17 230.048 1315.66 226.406 1312.97 223.721C1310.29 221.036 1306.65 219.528 1302.85 219.528C1299.05 219.528 1295.41 221.036 1292.73 223.721C1290.04 226.406 1288.53 230.048 1288.53 233.845C1288.53 237.642 1290.04 241.283 1292.73 243.968C1295.41 246.653 1299.05 248.162 1302.85 248.162ZM1379.21 171.804C1383 171.804 1386.64 170.296 1389.33 167.611C1392.01 164.926 1393.52 161.284 1393.52 157.487C1393.52 153.69 1392.01 150.049 1389.33 147.364C1386.64 144.679 1383 143.17 1379.21 143.17C1375.41 143.17 1371.77 144.679 1369.08 147.364C1366.4 150.049 1364.89 153.69 1364.89 157.487C1364.89 161.284 1366.4 164.926 1369.08 167.611C1371.77 170.296 1375.41 171.804 1379.21 171.804ZM1226.49 171.804C1230.29 171.804 1233.93 170.296 1236.62 167.611C1239.3 164.926 1240.81 161.284 1240.81 157.487C1240.81 153.69 1239.3 150.049 1236.62 147.364C1233.93 144.679 1230.29 143.17 1226.49 143.17C1222.69 143.17 1219.05 144.679 1216.37 147.364C1213.68 150.049 1212.17 153.69 1212.17 157.487C1212.17 161.284 1213.68 164.926 1216.37 167.611C1219.05 170.296 1222.69 171.804 1226.49 171.804ZM1226.49 95.4468C1230.29 95.4468 1233.93 93.9384 1236.62 91.2534C1239.3 88.5685 1240.81 84.9269 1240.81 81.1298C1240.81 77.3327 1239.3 73.6911 1236.62 71.0061C1233.93 68.3212 1230.29 66.8128 1226.49 66.8128C1222.69 66.8128 1219.05 68.3212 1216.37 71.0061C1213.68 73.6911 1212.17 77.3327 1212.17 81.1298C1212.17 84.9269 1213.68 88.5685 1216.37 91.2534C1219.05 93.9384 1222.69 95.4468 1226.49 95.4468ZM1150.13 95.4468C1153.93 95.4468 1157.57 93.9384 1160.26 91.2534C1162.94 88.5685 1164.45 84.9269 1164.45 81.1298C1164.45 77.3327 1162.94 73.6911 1160.26 71.0061C1157.57 68.3212 1153.93 66.8128 1150.13 66.8128C1146.34 66.8128 1142.7 68.3212 1140.01 71.0061C1137.33 73.6911 1135.82 77.3327 1135.82 81.1298C1135.82 84.9269 1137.33 88.5685 1140.01 91.2534C1142.7 93.9384 1146.34 95.4468 1150.13 95.4468ZM1073.78 95.4468C1077.57 95.4468 1081.22 93.9384 1083.9 91.2534C1086.59 88.5685 1088.09 84.9269 1088.09 81.1298C1088.09 77.3327 1086.59 73.6911 1083.9 71.0061C1081.22 68.3212 1077.57 66.8128 1073.78 66.8128C1069.98 66.8128 1066.34 68.3212 1063.65 71.0061C1060.97 73.6911 1059.46 77.3327 1059.46 81.1298C1059.46 84.9269 1060.97 88.5685 1063.65 91.2534C1066.34 93.9384 1069.98 95.4468 1073.78 95.4468ZM997.419 95.4468C1001.22 95.4468 1004.86 93.9384 1007.54 91.2534C1010.23 88.5685 1011.74 84.9269 1011.74 81.1298C1011.74 77.3327 1010.23 73.6911 1007.54 71.0061C1004.86 68.3212 1001.22 66.8128 997.419 66.8128C993.622 66.8128 989.98 68.3212 987.295 71.0061C984.61 73.6911 983.102 77.3327 983.102 81.1298C983.102 84.9269 984.61 88.5685 987.295 91.2534C989.98 93.9384 993.622 95.4468 997.419 95.4468ZM233.845 171.804C237.642 171.804 241.283 170.296 243.968 167.611C246.653 164.926 248.162 161.284 248.162 157.487C248.162 153.69 246.653 150.049 243.968 147.364C241.283 144.679 237.642 143.17 233.845 143.17C230.048 143.17 226.406 144.679 223.721 147.364C221.036 150.049 219.528 153.69 219.528 157.487C219.528 161.284 221.036 164.926 223.721 167.611C226.406 170.296 230.048 171.804 233.845 171.804ZM81.1298 171.804C84.9269 171.804 88.5685 170.296 91.2534 167.611C93.9384 164.926 95.4468 161.284 95.4468 157.487C95.4468 153.69 93.9384 150.049 91.2534 147.364C88.5685 144.679 84.9269 143.17 81.1298 143.17C77.3327 143.17 73.6911 144.679 71.0061 147.364C68.3212 150.049 66.8128 153.69 66.8128 157.487C66.8128 161.284 68.3212 164.926 71.0061 167.611C73.6911 170.296 77.3327 171.804 81.1298 171.804ZM233.845 248.162C237.642 248.162 241.283 246.653 243.968 243.968C246.653 241.283 248.162 237.642 248.162 233.845C248.162 230.048 246.653 226.406 243.968 223.721C241.283 221.036 237.642 219.528 233.845 219.528C230.048 219.528 226.406 221.036 223.721 223.721C221.036 226.406 219.528 230.048 219.528 233.845C219.528 237.642 221.036 241.283 223.721 243.968C226.406 246.653 230.048 248.162 233.845 248.162ZM157.487 324.519C161.284 324.519 164.926 323.011 167.611 320.326C170.296 317.641 171.804 313.999 171.804 310.202C171.804 306.405 170.296 302.763 167.611 300.078C164.926 297.394 161.284 295.885 157.487 295.885C153.69 295.885 150.049 297.394 147.364 300.078C144.679 302.763 143.17 306.405 143.17 310.202C143.17 313.999 144.679 317.641 147.364 320.326C150.049 323.011 153.69 324.519 157.487 324.519ZM233.845 95.4468C237.642 95.4468 241.283 93.9384 243.968 91.2534C246.653 88.5685 248.162 84.9269 248.162 81.1298C248.162 77.3327 246.653 73.6911 243.968 71.0061C241.283 68.3212 237.642 66.8128 233.845 66.8128C230.048 66.8128 226.406 68.3212 223.721 71.0061C221.036 73.6911 219.528 77.3327 219.528 81.1298C219.528 84.9269 221.036 88.5685 223.721 91.2534C226.406 93.9384 230.048 95.4468 233.845 95.4468ZM233.845 1240.81C237.642 1240.81 241.283 1239.3 243.968 1236.62C246.653 1233.93 248.162 1230.29 248.162 1226.49C248.162 1222.69 246.653 1219.05 243.968 1216.37C241.283 1213.68 237.642 1212.17 233.845 1212.17C230.048 1212.17 226.406 1213.68 223.721 1216.37C221.036 1219.05 219.528 1222.69 219.528 1226.49C219.528 1230.29 221.036 1233.93 223.721 1236.62C226.406 1239.3 230.048 1240.81 233.845 1240.81ZM310.202 1393.52C313.999 1393.52 317.641 1392.01 320.326 1389.33C323.011 1386.64 324.519 1383 324.519 1379.21C324.519 1375.41 323.011 1371.77 320.326 1369.08C317.641 1366.4 313.999 1364.89 310.202 1364.89C306.405 1364.89 302.763 1366.4 300.078 1369.08C297.394 1371.77 295.885 1375.41 295.885 1379.21C295.885 1383 297.394 1386.64 300.078 1389.33C302.763 1392.01 306.405 1393.52 310.202 1393.52ZM233.845 1088.09C237.642 1088.09 241.283 1086.59 243.968 1083.9C246.653 1081.22 248.162 1077.57 248.162 1073.78C248.162 1069.98 246.653 1066.34 243.968 1063.65C241.283 1060.97 237.642 1059.46 233.845 1059.46C230.048 1059.46 226.406 1060.97 223.721 1063.65C221.036 1066.34 219.528 1069.98 219.528 1073.78C219.528 1077.57 221.036 1081.22 223.721 1083.9C226.406 1086.59 230.048 1088.09 233.845 1088.09ZM233.845 1164.45C237.642 1164.45 241.283 1162.94 243.968 1160.26C246.653 1157.57 248.162 1153.93 248.162 1150.13C248.162 1146.34 246.653 1142.7 243.968 1140.01C241.283 1137.33 237.642 1135.82 233.845 1135.82C230.048 1135.82 226.406 1137.33 223.721 1140.01C221.036 1142.7 219.528 1146.34 219.528 1150.13C219.528 1153.93 221.036 1157.57 223.721 1160.26C226.406 1162.94 230.048 1164.45 233.845 1164.45ZM157.487 1011.74C161.284 1011.74 164.926 1010.23 167.611 1007.54C170.296 1004.86 171.804 1001.22 171.804 997.419C171.804 993.622 170.296 989.98 167.611 987.295C164.926 984.61 161.284 983.102 157.487 983.102C153.69 983.102 150.049 984.61 147.364 987.295C144.679 989.98 143.17 993.622 143.17 997.419C143.17 1001.22 144.679 1004.86 147.364 1007.54C150.049 1010.23 153.69 1011.74 157.487 1011.74ZM539.274 171.804C543.072 171.804 546.713 170.296 549.398 167.611C552.083 164.926 553.591 161.284 553.591 157.487C553.591 153.69 552.083 150.049 549.398 147.364C546.713 144.679 543.072 143.17 539.274 143.17C535.477 143.17 531.836 144.679 529.151 147.364C526.466 150.049 524.957 153.69 524.957 157.487C524.957 161.284 526.466 164.926 529.151 167.611C531.836 170.296 535.477 171.804 539.274 171.804ZM615.632 171.804C619.429 171.804 623.071 170.296 625.756 167.611C628.441 164.926 629.949 161.284 629.949 157.487C629.949 153.69 628.441 150.049 625.756 147.364C623.071 144.679 619.429 143.17 615.632 143.17C611.835 143.17 608.193 144.679 605.508 147.364C602.823 150.049 601.315 153.69 601.315 157.487C601.315 161.284 602.823 164.926 605.508 167.611C608.193 170.296 611.835 171.804 615.632 171.804ZM539.274 95.4468C543.072 95.4468 546.713 93.9384 549.398 91.2534C552.083 88.5685 553.591 84.9269 553.591 81.1298C553.591 77.3327 552.083 73.6911 549.398 71.0061C546.713 68.3212 543.072 66.8128 539.274 66.8128C535.477 66.8128 531.836 68.3212 529.151 71.0061C526.466 73.6911 524.957 77.3327 524.957 81.1298C524.957 84.9269 526.466 88.5685 529.151 91.2534C531.836 93.9384 535.477 95.4468 539.274 95.4468ZM691.989 324.519C695.786 324.519 699.428 323.011 702.113 320.326C704.798 317.641 706.306 313.999 706.306 310.202C706.306 306.405 704.798 302.763 702.113 300.078C699.428 297.394 695.786 295.885 691.989 295.885C688.192 295.885 684.551 297.394 681.866 300.078C679.181 302.763 677.672 306.405 677.672 310.202C677.672 313.999 679.181 317.641 681.866 320.326C684.551 323.011 688.192 324.519 691.989 324.519ZM768.347 248.162C772.144 248.162 775.785 246.653 778.47 243.968C781.155 241.283 782.664 237.642 782.664 233.845C782.664 230.048 781.155 226.406 778.47 223.721C775.785 221.036 772.144 219.528 768.347 219.528C764.55 219.528 760.908 221.036 758.223 223.721C755.538 226.406 754.03 230.048 754.03 233.845C754.03 237.642 755.538 241.283 758.223 243.968C760.908 246.653 764.55 248.162 768.347 248.162ZM768.347 95.4468C772.144 95.4468 775.785 93.9384 778.47 91.2534C781.155 88.5685 782.664 84.9269 782.664 81.1298C782.664 77.3327 781.155 73.6911 778.47 71.0061C775.785 68.3212 772.144 66.8128 768.347 66.8128C764.55 66.8128 760.908 68.3212 758.223 71.0061C755.538 73.6911 754.03 77.3327 754.03 81.1298C754.03 84.9269 755.538 88.5685 758.223 91.2534C760.908 93.9384 764.55 95.4468 768.347 95.4468ZM1302.85 935.379C1306.65 935.379 1310.29 933.87 1312.97 931.185C1315.66 928.5 1317.17 924.859 1317.17 921.062C1317.17 917.265 1315.66 913.623 1312.97 910.938C1310.29 908.253 1306.65 906.745 1302.85 906.745C1299.05 906.745 1295.41 908.253 1292.73 910.938C1290.04 913.623 1288.53 917.265 1288.53 921.062C1288.53 924.859 1290.04 928.5 1292.73 931.185C1295.41 933.87 1299.05 935.379 1302.85 935.379ZM1226.49 1011.74C1230.29 1011.74 1233.93 1010.23 1236.62 1007.54C1239.3 1004.86 1240.81 1001.22 1240.81 997.419C1240.81 993.622 1239.3 989.98 1236.62 987.295C1233.93 984.61 1230.29 983.102 1226.49 983.102C1222.69 983.102 1219.05 984.61 1216.37 987.295C1213.68 989.98 1212.17 993.622 1212.17 997.419C1212.17 1001.22 1213.68 1004.86 1216.37 1007.54C1219.05 1010.23 1222.69 1011.74 1226.49 1011.74ZM1226.49 1088.09C1230.29 1088.09 1233.93 1086.59 1236.62 1083.9C1239.3 1081.22 1240.81 1077.57 1240.81 1073.78C1240.81 1069.98 1239.3 1066.34 1236.62 1063.65C1233.93 1060.97 1230.29 1059.46 1226.49 1059.46C1222.69 1059.46 1219.05 1060.97 1216.37 1063.65C1213.68 1066.34 1212.17 1069.98 1212.17 1073.78C1212.17 1077.57 1213.68 1081.22 1216.37 1083.9C1219.05 1086.59 1222.69 1088.09 1226.49 1088.09ZM1226.49 1164.45C1230.29 1164.45 1233.93 1162.94 1236.62 1160.26C1239.3 1157.57 1240.81 1153.93 1240.81 1150.13C1240.81 1146.34 1239.3 1142.7 1236.62 1140.01C1233.93 1137.33 1230.29 1135.82 1226.49 1135.82C1222.69 1135.82 1219.05 1137.33 1216.37 1140.01C1213.68 1142.7 1212.17 1146.34 1212.17 1150.13C1212.17 1153.93 1213.68 1157.57 1216.37 1160.26C1219.05 1162.94 1222.69 1164.45 1226.49 1164.45ZM81.1298 859.021C84.9269 859.021 88.5685 857.513 91.2534 854.828C93.9384 852.143 95.4468 848.501 95.4468 844.704C95.4468 840.907 93.9384 837.266 91.2534 834.581C88.5685 831.896 84.9269 830.387 81.1298 830.387C77.3327 830.387 73.6911 831.896 71.0061 834.581C68.3212 837.266 66.8128 840.907 66.8128 844.704C66.8128 848.501 68.3212 852.143 71.0061 854.828C73.6911 857.513 77.3327 859.021 81.1298 859.021ZM81.1298 935.379C84.9269 935.379 88.5685 933.87 91.2534 931.185C93.9384 928.5 95.4468 924.859 95.4468 921.062C95.4468 917.265 93.9384 913.623 91.2534 910.938C88.5685 908.253 84.9269 906.745 81.1298 906.745C77.3327 906.745 73.6911 908.253 71.0061 910.938C68.3212 913.623 66.8128 917.265 66.8128 921.062C66.8128 924.859 68.3212 928.5 71.0061 931.185C73.6911 933.87 77.3327 935.379 81.1298 935.379ZM81.1298 782.664C84.9269 782.664 88.5685 781.155 91.2534 778.47C93.9384 775.785 95.4468 772.144 95.4468 768.347C95.4468 764.55 93.9384 760.908 91.2534 758.223C88.5685 755.538 84.9269 754.03 81.1298 754.03C77.3327 754.03 73.6911 755.538 71.0061 758.223C68.3212 760.908 66.8128 764.55 66.8128 768.347C66.8128 772.144 68.3212 775.785 71.0061 778.47C73.6911 781.155 77.3327 782.664 81.1298 782.664ZM157.487 782.664C161.284 782.664 164.926 781.155 167.611 778.47C170.296 775.785 171.804 772.144 171.804 768.347C171.804 764.55 170.296 760.908 167.611 758.223C164.926 755.538 161.284 754.03 157.487 754.03C153.69 754.03 150.049 755.538 147.364 758.223C144.679 760.908 143.17 764.55 143.17 768.347C143.17 772.144 144.679 775.785 147.364 778.47C150.049 781.155 153.69 782.664 157.487 782.664ZM81.1298 400.877C84.9269 400.877 88.5685 399.368 91.2534 396.683C93.9384 393.998 95.4468 390.357 95.4468 386.56C95.4468 382.762 93.9384 379.121 91.2534 376.436C88.5685 373.751 84.9269 372.243 81.1298 372.243C77.3327 372.243 73.6911 373.751 71.0061 376.436C68.3212 379.121 66.8128 382.762 66.8128 386.56C66.8128 390.357 68.3212 393.998 71.0061 396.683C73.6911 399.368 77.3327 400.877 81.1298 400.877ZM233.845 706.306C237.642 706.306 241.283 704.798 243.968 702.113C246.653 699.428 248.162 695.786 248.162 691.989C248.162 688.192 246.653 684.551 243.968 681.866C241.283 679.181 237.642 677.672 233.845 677.672C230.048 677.672 226.406 679.181 223.721 681.866C221.036 684.551 219.528 688.192 219.528 691.989C219.528 695.786 221.036 699.428 223.721 702.113C226.406 704.798 230.048 706.306 233.845 706.306ZM310.202 629.949C313.999 629.949 317.641 628.441 320.326 625.756C323.011 623.071 324.519 619.429 324.519 615.632C324.519 611.835 323.011 608.193 320.326 605.508C317.641 602.823 313.999 601.315 310.202 601.315C306.405 601.315 302.763 602.823 300.078 605.508C297.394 608.193 295.885 611.835 295.885 615.632C295.885 619.429 297.394 623.071 300.078 625.756C302.763 628.441 306.405 629.949 310.202 629.949Z" fill="#002345"/>
</g>
<defs>
<clipPath id="clip0_114_62">
<rect width="1450.79" height="1450.79" fill="white"/>
</clipPath>
</defs>
</svg>
